<svg width="20" height="31" viewBox="0 0 20 31" fill="none" xmlns="http://www.w3.org/2000/svg">
<path d="M0.622192 0.669842C0.622192 0.299899 0.922091 0 1.29203 0H18.7079C19.0779 0 19.3778 0.299898 19.3778 0.669842V29.4731C19.3778 29.843 19.0779 30.1429 18.7079 30.1429H1.29204C0.922092 30.1429 0.622192 29.843 0.622192 29.4731V0.669842Z" fill="#AA8439"/>
<g clip-path="url(#clip0)">
<rect x="1.29204" y="0.3349" width="17.4159" height="5.35873" rx="0.334921" fill="#E6B657"/>
<rect x="1.32553" y="0.368408" width="17.3489" height="0.334921" fill="#6E5420"/>
<circle cx="9.99997" cy="2.84679" r="1.56902" fill="#520000"/>
<rect x="1.32553" y="4.9903" width="17.3489" height="0.669842" fill="#FFCE6B"/>
</g>
<g clip-path="url(#clip1)">
<rect x="1.29204" y="5.6936" width="17.4159" height="21.4349" rx="0.334921" fill="#E6B657"/>
<rect x="1.32553" y="5.72711" width="17.3489" height="0.334921" fill="#6E5420"/>
<rect x="1.32553" y="26.4252" width="17.3489" height="0.669842" fill="#FFCE6B"/>
</g>
<g clip-path="url(#clip2)">
<rect x="1.29204" y="27.1285" width="17.4159" height="2.67937" rx="0.334921" fill="#E6B657"/>
<rect x="1.32553" y="27.162" width="17.3489" height="0.334921" fill="#6E5420"/>
<rect x="1.32553" y="29.1046" width="17.3489" height="0.669842" fill="#FFCE6B"/>
</g>
<defs>
<clipPath id="clip0">
<rect x="1.29204" y="0.3349" width="17.4159" height="5.35873" rx="0.334921" fill="white"/>
</clipPath>
<clipPath id="clip1">
<rect x="1.29204" y="5.6936" width="17.4159" height="21.4349" rx="0.334921" fill="white"/>
</clipPath>
<clipPath id="clip2">
<rect x="1.29204" y="27.1285" width="17.4159" height="2.67937" rx="0.334921" fill="white"/>
</clipPath>
</defs>
</svg>
